<svg xmlns="http://www.w3.org/2000/svg" width="24" height="24.048" viewBox="0 0 24 24.048">
  <path id="Icon_zocial-github" data-name="Icon zocial-github" d="M0,11.82A11.576,11.576,0,0,1,.962,7.155,11.615,11.615,0,0,1,7.335.782a11.794,11.794,0,0,1,9.331,0,11.716,11.716,0,0,1,6.373,6.373,11.794,11.794,0,0,1,0,9.331,11.8,11.8,0,0,1-6.373,6.421,11.794,11.794,0,0,1-9.331,0A11.7,11.7,0,0,1,.962,16.485,11.576,11.576,0,0,1,0,11.82Zm1.876,0A9.782,9.782,0,0,0,3.9,17.88a10.811,10.811,0,0,0,5.218,3.727V19.684a2.341,2.341,0,0,1,.962-2.092,6.9,6.9,0,0,1-1.13-.168,5.682,5.682,0,0,1-2.092-.77q-2.188-1.323-2.188-4.786a4.324,4.324,0,0,1,1.2-3.078,4.046,4.046,0,0,1,.12-3.078h.481a1.978,1.978,0,0,1,.6.12A8.269,8.269,0,0,1,9.162,6.89a11.343,11.343,0,0,1,2.886-.385,11.621,11.621,0,0,1,2.91.385,10.246,10.246,0,0,1,1.756-.962,2.607,2.607,0,0,1,1.106-.24l.289.024a4.2,4.2,0,0,1,.12,3.078,4.324,4.324,0,0,1,1.2,3.078,5.637,5.637,0,0,1-1.323,4.064,4.836,4.836,0,0,1-1.9,1.2,8.27,8.27,0,0,1-2.188.457,2.394,2.394,0,0,1,.986,2.092v1.924a10.891,10.891,0,0,0,5.122-3.776A9.8,9.8,0,0,0,22.1,11.82a10.135,10.135,0,0,0-.794-3.944A10.232,10.232,0,0,0,12,1.7a10.227,10.227,0,0,0-3.944.818,10.573,10.573,0,0,0-3.222,2.14A11.155,11.155,0,0,0,2.669,7.876a10.135,10.135,0,0,0-.794,3.944Z" transform="translate(0 0.18)" fill="#2fd7e7"/>
</svg>
