<svg xmlns="http://www.w3.org/2000/svg" width="30.642" height="21.545" viewBox="0 0 30.642 21.545">
  <path id="Icon_awesome-youtube" data-name="Icon awesome-youtube" d="M31.051,7.871a3.85,3.85,0,0,0-2.709-2.727C25.953,4.5,16.371,4.5,16.371,4.5S6.789,4.5,4.4,5.144A3.85,3.85,0,0,0,1.69,7.871a40.39,40.39,0,0,0-.64,7.423,40.39,40.39,0,0,0,.64,7.423A3.793,3.793,0,0,0,4.4,25.4c2.39.644,11.972.644,11.972.644s9.582,0,11.972-.644a3.793,3.793,0,0,0,2.709-2.683,40.39,40.39,0,0,0,.64-7.423,40.39,40.39,0,0,0-.64-7.423ZM13.237,19.85V10.738l8.009,4.556L13.237,19.85Z" transform="translate(-1.05 -4.5)" fill="#2fd7e7"/>
</svg>
