<svg xmlns="http://www.w3.org/2000/svg" width="25.939" height="25.939" viewBox="0 0 25.939 25.939">
  <g id="Icon_feather-instagram" data-name="Icon feather-instagram" transform="translate(1 1)">
    <path id="Path_449" data-name="Path 449" d="M8.985,3H20.954a5.985,5.985,0,0,1,5.985,5.985V20.954a5.985,5.985,0,0,1-5.985,5.985H8.985A5.985,5.985,0,0,1,3,20.954V8.985A5.985,5.985,0,0,1,8.985,3Z" transform="translate(-3 -3)" fill="none" stroke="#2fd7e7" stroke-linecap="round" stroke-linejoin="round" stroke-width="2"/>
    <path id="Path_450" data-name="Path 450" d="M21.589,16.021a4.788,4.788,0,1,1-4.034-4.034A4.788,4.788,0,0,1,21.589,16.021Z" transform="translate(-4.831 -4.805)" fill="none" stroke="#2fd7e7" stroke-linecap="round" stroke-linejoin="round" stroke-width="2"/>
    <path id="Path_451" data-name="Path 451" d="M26.25,9.75h0" transform="translate(-7.697 -4.364)" fill="none" stroke="#2fd7e7" stroke-linecap="round" stroke-linejoin="round" stroke-width="2"/>
  </g>
</svg>
