<svg xmlns="http://www.w3.org/2000/svg" width="24" height="24" viewBox="0 0 24 24">
  <path id="Icon_awesome-linkedin" data-name="Icon awesome-linkedin" d="M22.286,2.25H1.709A1.722,1.722,0,0,0,0,3.98V24.52a1.722,1.722,0,0,0,1.709,1.73H22.286A1.726,1.726,0,0,0,24,24.52V3.98A1.726,1.726,0,0,0,22.286,2.25ZM7.254,22.821H3.7V11.368H7.259V22.821ZM5.475,9.8A2.063,2.063,0,1,1,7.538,7.741,2.063,2.063,0,0,1,5.475,9.8ZM20.587,22.821H17.03V17.25c0-1.329-.027-3.038-1.848-3.038-1.854,0-2.138,1.446-2.138,2.941v5.668H9.488V11.368H12.9v1.564h.048a3.747,3.747,0,0,1,3.37-1.848c3.6,0,4.27,2.373,4.27,5.459Z" transform="translate(0 -2.25)" fill="#2fd7e7"/>
</svg>
