<svg width="207" height="66" viewBox="0 0 207 66" fill="none" xmlns="http://www.w3.org/2000/svg">
<path d="M13.8052 63.6486C13.1226 64.133 12.286 64.5073 11.2952 64.7715C10.3264 65.0357 9.40162 65.1678 8.52091 65.1678C6.34114 65.1458 4.72283 64.5403 3.66597 63.3514C2.63113 62.1404 2.11371 60.3569 2.11371 58.001V51.2966H0V46.871H2.11371V43.172L8.65302 42.4124V46.871H12.6162L11.9557 51.2966H8.65302V57.935C8.65302 58.7056 8.77411 59.2561 9.01631 59.5863C9.25851 59.8946 9.59978 60.0487 10.0401 60.0487C10.5906 60.0487 11.141 59.8946 11.6915 59.5863L13.8052 63.6486Z" fill="#EDEEF1"/>
<path d="M26.2354 46.2105C27.7106 46.2105 28.8665 46.6729 29.7032 47.5976C30.5619 48.5224 30.9912 49.8214 30.9912 51.4948V64.5073H24.4519V52.6837C24.4519 52.0232 24.3639 51.5718 24.1877 51.3296C24.0336 51.0874 23.7914 50.9663 23.4611 50.9663C22.7345 50.9663 21.9969 51.5498 21.2483 52.7168V64.5073H14.709V39.9354L21.2483 39.2749V48.4563C21.9969 47.6637 22.7676 47.0912 23.5602 46.7389C24.3529 46.3866 25.2446 46.2105 26.2354 46.2105Z" fill="#EDEEF1"/>
<path d="M50.2216 55.458C50.2216 56.0084 50.1776 56.702 50.0895 57.5387H39.3888C39.565 58.7276 39.9282 59.5313 40.4787 59.9496C41.0512 60.3459 41.8658 60.5441 42.9227 60.5441C43.5392 60.5441 44.1667 60.423 44.8052 60.1808C45.4437 59.9166 46.1483 59.5203 46.9189 58.9918L49.5611 62.5587C47.4253 64.2981 45.0034 65.1678 42.2952 65.1678C39.1686 65.1678 36.8017 64.3092 35.1944 62.5918C33.5871 60.8523 32.7835 58.5625 32.7835 55.7222C32.7835 53.9608 33.1137 52.3645 33.7743 50.9333C34.4568 49.4801 35.4586 48.3352 36.7797 47.4985C38.1008 46.6398 39.6971 46.2105 41.5686 46.2105C43.308 46.2105 44.8272 46.5738 46.1263 47.3004C47.4253 48.0269 48.4271 49.0838 49.1317 50.4709C49.8583 51.8581 50.2216 53.5204 50.2216 55.458ZM43.7814 53.6085C43.7594 52.5736 43.5942 51.77 43.286 51.1975C42.9997 50.6251 42.4713 50.3388 41.7007 50.3388C40.9741 50.3388 40.4236 50.592 40.0493 51.0984C39.6971 51.6049 39.4659 52.5186 39.3558 53.8397H43.7814V53.6085Z" fill="#EDEEF1"/>
<path d="M78.976 41.5207L75.6403 64.5073H66.7892L64.7415 47.9939L62.4627 64.5073H53.8096L50.606 41.5207H57.4096L58.8627 59.5863L61.3067 41.5207H68.4075L70.4551 59.5863L72.4367 41.5207H78.976Z" fill="#EDEEF1"/>
<path d="M86.9149 46.871V64.5073H80.3755V46.871H86.9149ZM83.6452 37.1281C84.7021 37.1281 85.5718 37.4694 86.2543 38.1519C86.9589 38.8125 87.3112 39.6381 87.3112 40.629C87.3112 41.6198 86.9589 42.4564 86.2543 43.139C85.5718 43.7995 84.7021 44.1298 83.6452 44.1298C82.5883 44.1298 81.7076 43.7995 81.0031 43.139C80.3205 42.4564 79.9792 41.6198 79.9792 40.629C79.9792 39.6381 80.3205 38.8125 81.0031 38.1519C81.7076 37.4694 82.5883 37.1281 83.6452 37.1281Z" fill="#EDEEF1"/>
<path d="M96.7643 46.2105C98.0634 46.2105 99.3074 46.4196 100.496 46.838C101.707 47.2343 102.72 47.7848 103.535 48.4893L101.223 52.0232C100.584 51.6269 99.9019 51.3186 99.1753 51.0984C98.4487 50.8562 97.7331 50.7351 97.0285 50.7351C96.0377 50.7351 95.5423 50.9994 95.5423 51.5278C95.5423 51.748 95.6084 51.9351 95.7405 52.0892C95.8726 52.2214 96.1808 52.3975 96.6652 52.6177C97.1716 52.8158 97.9753 53.08 99.0762 53.4103C100.838 53.9608 102.137 54.6653 102.973 55.524C103.832 56.3607 104.261 57.5497 104.261 59.0909C104.261 60.2799 103.898 61.3367 103.172 62.2615C102.467 63.1862 101.476 63.9018 100.199 64.4082C98.9441 64.9146 97.5129 65.1678 95.9056 65.1678C94.3644 65.1678 92.9112 64.9257 91.5461 64.4413C90.203 63.9348 89.0691 63.2413 88.1443 62.3606L91.2488 58.9258C91.9094 59.4542 92.625 59.8836 93.3956 60.2138C94.1882 60.5221 94.9699 60.6762 95.7405 60.6762C96.335 60.6762 96.7863 60.5881 97.0946 60.412C97.4248 60.2138 97.59 59.9386 97.59 59.5863C97.59 59.2781 97.5129 59.0469 97.3588 58.8928C97.2267 58.7166 96.9405 58.5515 96.5001 58.3974C96.0597 58.2212 95.2891 57.968 94.1882 57.6377C90.7755 56.6249 89.0691 54.7204 89.0691 51.9241C89.0691 50.8452 89.3663 49.8764 89.9608 49.0178C90.5773 48.1591 91.458 47.4765 92.6029 46.9701C93.7699 46.4637 95.157 46.2105 96.7643 46.2105Z" fill="#EDEEF1"/>
<path d="M122.597 55.458C122.597 56.0084 122.553 56.702 122.465 57.5387H111.764C111.94 58.7276 112.303 59.5313 112.854 59.9496C113.426 60.3459 114.241 60.5441 115.298 60.5441C115.914 60.5441 116.542 60.423 117.18 60.1808C117.819 59.9166 118.523 59.5203 119.294 58.9918L121.936 62.5587C119.8 64.2981 117.378 65.1678 114.67 65.1678C111.544 65.1678 109.177 64.3092 107.569 62.5918C105.962 60.8523 105.159 58.5625 105.159 55.7222C105.159 53.9608 105.489 52.3645 106.149 50.9333C106.832 49.4801 107.834 48.3352 109.155 47.4985C110.476 46.6398 112.072 46.2105 113.944 46.2105C115.683 46.2105 117.202 46.5738 118.501 47.3004C119.8 48.0269 120.802 49.0838 121.507 50.4709C122.233 51.8581 122.597 53.5204 122.597 55.458ZM116.156 53.6085C116.134 52.5736 115.969 51.77 115.661 51.1975C115.375 50.6251 114.846 50.3388 114.076 50.3388C113.349 50.3388 112.799 50.592 112.424 51.0984C112.072 51.6049 111.841 52.5186 111.731 53.8397H116.156V53.6085Z" fill="#EDEEF1"/>
<path d="M131.766 41.5207C135.465 41.5207 138.427 42.3463 140.65 43.9977C142.874 45.627 143.986 48.5994 143.986 52.9149C143.986 57.1644 142.918 60.1588 140.783 61.8982C138.647 63.6376 135.773 64.5073 132.163 64.5073H124.401V41.5207H131.766ZM131.205 46.3096V59.7184H132.559C133.616 59.7184 134.463 59.5093 135.102 59.0909C135.74 58.6726 136.214 57.979 136.522 57.0102C136.83 56.0194 136.984 54.6543 136.984 52.9149C136.984 51.1975 136.819 49.8654 136.489 48.9187C136.181 47.9499 135.707 47.2783 135.069 46.904C134.43 46.5077 133.605 46.3096 132.592 46.3096H131.205Z" fill="#EDEEF1"/>
<path d="M162.655 55.458C162.655 56.0084 162.611 56.702 162.522 57.5387H151.822C151.998 58.7276 152.361 59.5313 152.912 59.9496C153.484 60.3459 154.299 60.5441 155.356 60.5441C155.972 60.5441 156.6 60.423 157.238 60.1808C157.877 59.9166 158.581 59.5203 159.352 58.9918L161.994 62.5587C159.858 64.2981 157.436 65.1678 154.728 65.1678C151.602 65.1678 149.235 64.3092 147.627 62.5918C146.02 60.8523 145.216 58.5625 145.216 55.7222C145.216 53.9608 145.547 52.3645 146.207 50.9333C146.89 49.4801 147.892 48.3352 149.213 47.4985C150.534 46.6398 152.13 46.2105 154.002 46.2105C155.741 46.2105 157.26 46.5738 158.559 47.3004C159.858 48.0269 160.86 49.0838 161.565 50.4709C162.291 51.8581 162.655 53.5204 162.655 55.458ZM156.214 53.6085C156.192 52.5736 156.027 51.77 155.719 51.1975C155.433 50.6251 154.904 50.3388 154.134 50.3388C153.407 50.3388 152.857 50.592 152.482 51.0984C152.13 51.6049 151.899 52.5186 151.789 53.8397H156.214V53.6085Z" fill="#EDEEF1"/>
<path d="M180.584 46.871L175.333 64.5073H167.604L162.221 46.871H169.322L171.535 59.7845L173.979 46.871H180.584Z" fill="#EDEEF1"/>
<path d="M182.785 8.00941L172.592 24.5517C172.316 24.9808 171.876 25.2135 171.441 25.1517L168.485 24.6499C167.559 24.5226 167.145 23.2353 167.74 22.3298L182.008 0.59466C182.284 0.172831 182.72 -0.0489936 183.148 0.00918984L184.884 0.24556C185.313 0.303743 185.672 0.634661 185.825 1.11467L193.767 25.879C194.097 26.9117 193.356 28.0427 192.43 27.9154L189.38 27.399C188.948 27.3408 188.585 27.0027 188.436 26.519L182.785 8.00941Z" fill="#2FD7E7"/>
<path d="M154.732 25.9117L205.921 40.0139C206.575 40.1921 207.018 40.7958 206.999 41.4758L206.941 43.4722C206.912 44.4249 206.004 45.0977 205.086 44.8468L153.893 30.7955C153.24 30.6173 152.793 30.0136 152.815 29.3336L152.873 27.2863C152.902 26.3335 153.814 25.6572 154.732 25.9117Z" fill="#2FD7E7"/>
</svg>
